<svg xmlns="http://www.w3.org/2000/svg" viewBox="0 0 91.73 105.83">
<path fill="#808080" d="M81.48,105.83H37.77c-5.65,0-10.25-4.63-10.25-10.33V36.28c0-5.7,4.6-10.33,10.25-10.33h43.71c5.65,0,10.25,4.63,10.25,10.33v59.22c0,5.7-4.6,10.33-10.25,10.33Zm-41.96-12h40.21V37.95H39.52v55.88Z"/>
<path fill="#808080" d="M18.32,79.88H10.25c-5.65,0-10.25-4.63-10.25-10.33V10.33C0,4.63,4.6,0,10.25,0H53.96c5.65,0,10.25,4.63,10.25,10.33v6.53c0,3.31-2.69,6-6,6s-6-2.69-6-6v-4.86H12v55.88h6.32c3.31,0,6,2.69,6,6s-2.69,6-6,6Z"/>
</svg>