<?xml version="1.0" encoding="UTF-8"?><svg id="Ebene_2" xmlns="http://www.w3.org/2000/svg" viewBox="0 0 512 605"><defs><style>.cls-1{fill:#010101;}</style></defs><g id="Ebene_1-2"><g><path class="cls-1" d="M512,176C512,78.8,433.2,0,336,0S160,78.8,160,176c0,18.7,2.9,36.8,8.3,53.7L7.03,391c-4.5,4.5-7.03,10.6-7.03,17v80c0,13.3,10.75,24,24,24H104c13.3,0,24-10.7,24-24v-40h40c13.3,0,24-10.7,24-24v-40h40c6.4,0,12.5-2.5,16.1-7.9l34.2-32.4c16.9,5.4,35,8.3,53.7,8.3,97.2,0,176-78.8,176-176Zm-136-80c22.1,0,40,17.9,40,40s-17.9,40-40,40-40-17.9-40-40,17.9-40,40-40Z"/><path class="cls-1" d="M495.12,478.37h-75.98v-75.98c0-9.33-7.56-16.89-16.88-16.89s-16.88,7.56-16.88,16.89v75.98h-75.98c-9.32,0-16.88,7.55-16.88,16.88s7.56,16.89,16.88,16.89h75.98v75.98c0,9.33,7.56,16.88,16.88,16.88s16.88-7.55,16.88-16.88v-75.98h75.98c9.32,0,16.88-7.56,16.88-16.89s-7.55-16.88-16.88-16.88Z"/></g></g></svg>